<svg id="admin-logo" xmlns="http://www.w3.org/2000/svg" width="45.939" height="47.805" viewBox="0 0 45.939 47.805">
  <g id="logo_prostar-up" data-name="logo prostar-up" transform="translate(0)">
    <g id="Group_4" data-name="Group 4">
      <path id="Path_1" data-name="Path 1" d="M319.96,202.97h7.354a5.9,5.9,0,0,1,3.035.643,3.172,3.172,0,0,1,1.428,1.774,9.616,9.616,0,0,1,.37,2.916,9.382,9.382,0,0,1-.37,2.856,3.252,3.252,0,0,1-1.441,1.809,5.889,5.889,0,0,1-3.094.666h-4.593v5.712H319.96Zm6.259,8.258a6.891,6.891,0,0,0,2.189-.249,1.357,1.357,0,0,0,.868-.833,6.07,6.07,0,0,0,.2-1.843,6.357,6.357,0,0,0-.19-1.832,1.317,1.317,0,0,0-.844-.82,6.608,6.608,0,0,0-2.155-.251h-3.641v5.83h3.57Z" transform="translate(-319.96 -202.781)" fill="#06005d"/>
      <path id="Path_2" data-name="Path 2" d="M414.395,219.343l-2.427-6.187h-4.688v6.187H404.59V202.97h7.639a6.1,6.1,0,0,1,3.035.606,2.956,2.956,0,0,1,1.38,1.69,9.391,9.391,0,0,1,.344,2.8A8.342,8.342,0,0,1,416.5,211a2.969,2.969,0,0,1-1.94,1.8l2.689,6.544h-2.856Zm-1.155-8.84a1.334,1.334,0,0,0,.87-.8,5.331,5.331,0,0,0,.19-1.642,5.69,5.69,0,0,0-.178-1.666,1.257,1.257,0,0,0-.822-.762,6.576,6.576,0,0,0-2.094-.238h-3.927v5.355h3.831A6.687,6.687,0,0,0,413.24,210.5Z" transform="translate(-389.098 -202.781)" fill="#06005d"/>
      <path id="Path_3" data-name="Path 3" d="M492.145,218.015a3.234,3.234,0,0,1-1.774-2.3,38.512,38.512,0,0,1,0-10.8,3.23,3.23,0,0,1,1.774-2.3,16.476,16.476,0,0,1,9.364,0,3.233,3.233,0,0,1,1.785,2.308,38.343,38.343,0,0,1,0,10.78,3.233,3.233,0,0,1-1.785,2.308,16.455,16.455,0,0,1-9.364,0Zm7.628-2.036a1.71,1.71,0,0,0,.989-1.4,40.079,40.079,0,0,0,0-8.52,1.706,1.706,0,0,0-.989-1.4,9.912,9.912,0,0,0-2.951-.286,9.759,9.759,0,0,0-2.938.286,1.71,1.71,0,0,0-.976,1.4,40.079,40.079,0,0,0,0,8.52,1.71,1.71,0,0,0,.976,1.4,9.767,9.767,0,0,0,2.938.286A9.911,9.911,0,0,0,499.773,215.979Z" transform="translate(-458.864 -201.94)" fill="#06005d"/>
      <path id="Path_4" data-name="Path 4" d="M322.932,330.278c-.7-.04-1.313-.1-1.838-.167v-1.5q1.87.181,3.253.183a9.106,9.106,0,0,0,1.276-.068,1.814,1.814,0,0,0,.714-.236.707.707,0,0,0,.319-.434,3.19,3.19,0,0,0,.077-.8,3.514,3.514,0,0,0-.068-.82.592.592,0,0,0-.289-.381,1.992,1.992,0,0,0-.738-.167l-2.491-.289a3.168,3.168,0,0,1-1.466-.463,1.8,1.8,0,0,1-.7-.95,5.03,5.03,0,0,1-.19-1.5,3.4,3.4,0,0,1,.463-1.953,2.173,2.173,0,0,1,1.269-.873,8.495,8.495,0,0,1,2.1-.212q.881,0,1.809.084a13.311,13.311,0,0,1,1.5.205v1.459c-.375-.06-.84-.108-1.4-.145s-1.084-.053-1.58-.053a10.543,10.543,0,0,0-1.276.06,1.951,1.951,0,0,0-.729.212.689.689,0,0,0-.35.4,2.687,2.687,0,0,0-.075.738,2.9,2.9,0,0,0,.075.784.548.548,0,0,0,.311.342,2.763,2.763,0,0,0,.767.167l2.508.289a3.711,3.711,0,0,1,1.269.311,1.514,1.514,0,0,1,.721.813,4.737,4.737,0,0,1,.275,1.854,3.9,3.9,0,0,1-.441,2.074,2.006,2.006,0,0,1-1.186.9,7.661,7.661,0,0,1-1.975.205C324.268,330.338,323.631,330.318,322.932,330.278Z" transform="translate(-320.638 -298.094)" fill="#06005d"/>
      <path id="Path_5" data-name="Path 5" d="M372.936,330.746v-8.86H369.76v-1.6h8.069v1.6h-3.176v8.86Z" transform="translate(-360.644 -298.625)" fill="#06005d"/>
      <path id="Path_6" data-name="Path 6" d="M421.248,330.746l-.926-2.523H415.9l-.9,2.523H413.27l3.755-10.456h2.233l3.755,10.456Zm-3.1-8.723h-.075L416.4,326.69h3.42Z" transform="translate(-396.189 -298.625)" fill="#06005d"/>
      <path id="Path_7" data-name="Path 7" d="M482.193,330.755l-1.551-3.95h-2.995v3.95H475.93V320.3h4.879a3.889,3.889,0,0,1,1.937.388,1.893,1.893,0,0,1,.882,1.078,6.024,6.024,0,0,1,.22,1.785,5.313,5.313,0,0,1-.311,1.876,1.893,1.893,0,0,1-1.239,1.148l1.717,4.179Zm-.736-5.646a.847.847,0,0,0,.555-.509,3.413,3.413,0,0,0,.121-1.049,3.621,3.621,0,0,0-.113-1.064A.807.807,0,0,0,481.5,322a4.227,4.227,0,0,0-1.338-.152h-2.508v3.42H480.1A4.2,4.2,0,0,0,481.457,325.109Z" transform="translate(-447.378 -298.633)" fill="#06005d"/>
      <path id="Path_8" data-name="Path 8" d="M530.006,330.746v-8.86H526.83v-1.6H534.9v1.6h-3.176v8.86Z" transform="translate(-488.96 -298.625)" fill="#06005d"/>
      <path id="Path_9" data-name="Path 9" d="M320.45,436.129V434.61h3.861v1.519Z" transform="translate(-320.36 -392.017)" fill="#06005d"/>
      <path id="Path_10" data-name="Path 10" d="M361.216,405.3v5.82a12.07,12.07,0,0,1-.275,3.039,1.989,1.989,0,0,1-1.109,1.338,9.609,9.609,0,0,1-5.356,0,2,2,0,0,1-1.124-1.345,11.845,11.845,0,0,1-.282-3.031V405.3h1.717v6.352a8.193,8.193,0,0,0,.13,1.785.963.963,0,0,0,.6.7,4.9,4.9,0,0,0,1.642.19,4.783,4.783,0,0,0,1.626-.19.95.95,0,0,0,.593-.7,8.9,8.9,0,0,0,.121-1.785V405.3Z" transform="translate(-347.009 -368.073)" fill="#06005d"/>
      <path id="Path_11" data-name="Path 11" d="M412.26,405.3h4.7a3.768,3.768,0,0,1,1.937.41,2.033,2.033,0,0,1,.912,1.131,6.113,6.113,0,0,1,.236,1.862,6,6,0,0,1-.236,1.823,2.084,2.084,0,0,1-.919,1.155,3.766,3.766,0,0,1-1.975.425h-2.933v3.647H412.26Zm4,5.274a4.374,4.374,0,0,0,1.4-.159.865.865,0,0,0,.555-.533,3.894,3.894,0,0,0,.13-1.177,4.067,4.067,0,0,0-.121-1.17.841.841,0,0,0-.54-.524,4.229,4.229,0,0,0-1.375-.159h-2.325v3.723h2.277Z" transform="translate(-395.363 -368.073)" fill="#06005d"/>
    </g>
    <path id="Path_12" data-name="Path 12" d="M476.171,395.34l.617-6.46-6.471.48,1.854,1.893L463,400.228l2.147,2.193,9.17-8.975Z" transform="translate(-436.815 -354.659)" fill="#06005d"/>
  </g>
</svg>
