<svg xmlns="http://www.w3.org/2000/svg" width="23.998" height="22.783" viewBox="0 0 23.998 22.783"><g transform="translate(0 -12.962)"><g transform="translate(8.323 17.549)"><g transform="translate(0 0)"><path d="M181.256,110.825a3.676,3.676,0,1,0,3.676,3.676A3.68,3.68,0,0,0,181.256,110.825Zm0,5.529a1.853,1.853,0,1,1,1.853-1.853A1.855,1.855,0,0,1,181.256,116.354Z" transform="translate(-177.58 -110.825)" fill="#fff"/></g></g><g transform="translate(11.088 23.108)"><path d="M237.468,229.428a.911.911,0,0,0-.911.911v10.814a.911.911,0,1,0,1.823,0V230.339A.911.911,0,0,0,237.468,229.428Z" transform="translate(-236.557 -229.428)" fill="#fff"/></g><g transform="translate(11.088 12.962)"><g transform="translate(0 0)"><path d="M237.468,12.962a.911.911,0,0,0-.911.911V18.46a.911.911,0,1,0,1.823,0V13.873A.911.911,0,0,0,237.468,12.962Z" transform="translate(-236.557 -12.962)" fill="#fff"/></g></g><g transform="translate(16.647 23.807)"><g transform="translate(0 0)"><path d="M358.836,244.334a3.676,3.676,0,1,0,3.676,3.676A3.68,3.68,0,0,0,358.836,244.334Zm0,5.529a1.853,1.853,0,1,1,1.853-1.853A1.855,1.855,0,0,1,358.836,249.863Z" transform="translate(-355.16 -244.334)" fill="#fff"/></g></g><g transform="translate(19.411 29.335)"><g transform="translate(0 0)"><path d="M415.048,362.289a.911.911,0,0,0-.911.911v4.587a.911.911,0,1,0,1.823,0V363.2A.911.911,0,0,0,415.048,362.289Z" transform="translate(-414.137 -362.289)" fill="#fff"/></g></g><g transform="translate(19.411 12.962)"><g transform="translate(0 0)"><path d="M415.048,12.962a.911.911,0,0,0-.911.911V24.688a.911.911,0,1,0,1.823,0V13.873A.911.911,0,0,0,415.048,12.962Z" transform="translate(-414.137 -12.962)" fill="#fff"/></g></g><g transform="translate(0 23.807)"><g transform="translate(0 0)"><path d="M3.676,244.334a3.676,3.676,0,1,0,3.676,3.676A3.68,3.68,0,0,0,3.676,244.334Zm0,5.529a1.853,1.853,0,1,1,1.853-1.853A1.855,1.855,0,0,1,3.676,249.863Z" transform="translate(0 -244.334)" fill="#fff"/></g></g><g transform="translate(2.764 29.335)"><g transform="translate(0 0)"><path d="M59.888,362.289a.911.911,0,0,0-.911.911v4.587a.911.911,0,0,0,1.823,0V363.2A.911.911,0,0,0,59.888,362.289Z" transform="translate(-58.977 -362.289)" fill="#fff"/></g></g><g transform="translate(2.764 12.962)"><g transform="translate(0 0)"><path d="M59.888,12.962a.911.911,0,0,0-.911.911V24.688a.911.911,0,0,0,1.823,0V13.873A.911.911,0,0,0,59.888,12.962Z" transform="translate(-58.977 -12.962)" fill="#fff"/></g></g></g></svg>