<svg xmlns="http://www.w3.org/2000/svg" width="64.332" height="66.944" viewBox="0 0 64.332 66.944">
  <g id="Group_5" data-name="Group 5" transform="translate(-189 -63.195)">
    <g id="logo_prostar-up" data-name="logo prostar-up" transform="translate(-130.96 -138.745)">
      <g id="Group_4" data-name="Group 4" transform="translate(319.96 201.94)">
        <path id="Path_1" data-name="Path 1" d="M319.96,202.97h10.3a8.262,8.262,0,0,1,4.25.9,4.442,4.442,0,0,1,2,2.484,13.466,13.466,0,0,1,.518,4.084,13.138,13.138,0,0,1-.518,4,4.554,4.554,0,0,1-2.018,2.533,8.247,8.247,0,0,1-4.332.933h-6.432v8H319.96Zm8.765,11.564a9.649,9.649,0,0,0,3.066-.349,1.9,1.9,0,0,0,1.215-1.166,8.5,8.5,0,0,0,.285-2.581,8.9,8.9,0,0,0-.267-2.566,1.844,1.844,0,0,0-1.182-1.148,9.254,9.254,0,0,0-3.017-.351h-5.1v8.165h5Z" transform="translate(-319.96 -202.706)" fill="#06005d"/>
        <path id="Path_2" data-name="Path 2" d="M418.32,225.9l-3.4-8.665h-6.565V225.9H404.59V202.97h10.7a8.547,8.547,0,0,1,4.25.849,4.14,4.14,0,0,1,1.933,2.366,13.15,13.15,0,0,1,.482,3.915,11.682,11.682,0,0,1-.682,4.117,4.158,4.158,0,0,1-2.717,2.515l3.766,9.165h-4ZM416.7,213.519a1.868,1.868,0,0,0,1.218-1.115,7.465,7.465,0,0,0,.267-2.3,7.967,7.967,0,0,0-.249-2.333,1.76,1.76,0,0,0-1.151-1.066,9.209,9.209,0,0,0-2.933-.333h-5.5v7.5h5.365A9.364,9.364,0,0,0,416.7,213.519Z" transform="translate(-382.895 -202.706)" fill="#06005d"/>
        <path id="Path_3" data-name="Path 3" d="M493.007,224.451a4.528,4.528,0,0,1-2.484-3.215,37.126,37.126,0,0,1-.533-7.565,37.126,37.126,0,0,1,.533-7.565,4.523,4.523,0,0,1,2.484-3.215q1.95-.95,6.547-.951t6.565.951a4.528,4.528,0,0,1,2.5,3.233,37.163,37.163,0,0,1,.533,7.547,37.193,37.193,0,0,1-.533,7.55,4.528,4.528,0,0,1-2.5,3.233q-1.965.95-6.565.951T493.007,224.451ZM503.69,221.6a2.394,2.394,0,0,0,1.384-1.966,56.129,56.129,0,0,0,0-11.931,2.39,2.39,0,0,0-1.384-1.966,13.88,13.88,0,0,0-4.132-.4,13.666,13.666,0,0,0-4.115.4,2.394,2.394,0,0,0-1.366,1.966,35.959,35.959,0,0,0-.318,5.965,35.959,35.959,0,0,0,.318,5.965,2.394,2.394,0,0,0,1.366,1.966,13.678,13.678,0,0,0,4.115.4A13.879,13.879,0,0,0,503.69,221.6Z" transform="translate(-446.402 -201.94)" fill="#06005d"/>
        <path id="Path_4" data-name="Path 4" d="M323.789,334.537c-.979-.056-1.838-.136-2.574-.233V332.2q2.619.254,4.555.256a12.755,12.755,0,0,0,1.787-.095,2.54,2.54,0,0,0,1-.331.989.989,0,0,0,.446-.608,4.466,4.466,0,0,0,.108-1.118,4.923,4.923,0,0,0-.095-1.148.829.829,0,0,0-.405-.533,2.788,2.788,0,0,0-1.033-.233l-3.489-.405a4.437,4.437,0,0,1-2.053-.649,2.527,2.527,0,0,1-.979-1.33,7.042,7.042,0,0,1-.267-2.107,4.762,4.762,0,0,1,.649-2.735,3.043,3.043,0,0,1,1.777-1.223,11.894,11.894,0,0,1,2.938-.3q1.234,0,2.533.118a18.653,18.653,0,0,1,2.107.287v2.043c-.526-.085-1.177-.151-1.959-.2s-1.518-.074-2.212-.074a14.757,14.757,0,0,0-1.787.085,2.732,2.732,0,0,0-1.02.3.965.965,0,0,0-.49.564,3.764,3.764,0,0,0-.105,1.033,4.061,4.061,0,0,0,.105,1.1.768.768,0,0,0,.436.479,3.868,3.868,0,0,0,1.074.233l3.512.405a5.2,5.2,0,0,1,1.777.436,2.12,2.12,0,0,1,1.01,1.138,6.634,6.634,0,0,1,.385,2.6,5.463,5.463,0,0,1-.618,2.9,2.809,2.809,0,0,1-1.661,1.256,10.727,10.727,0,0,1-2.766.287C325.661,334.621,324.769,334.593,323.789,334.537Z" transform="translate(-320.577 -289.467)" fill="#06005d"/>
        <path id="Path_5" data-name="Path 5" d="M374.208,334.933V322.525H369.76V320.29h11.3v2.235h-4.448v12.408Z" transform="translate(-356.994 -289.95)" fill="#06005d"/>
        <path id="Path_6" data-name="Path 6" d="M424.442,334.933l-1.3-3.533h-6.194l-1.256,3.533H413.27l5.258-14.643h3.128l5.258,14.643ZM420.1,322.718h-.105l-2.341,6.534h4.789Z" transform="translate(-389.35 -289.95)" fill="#06005d"/>
        <path id="Path_7" data-name="Path 7" d="M484.7,334.94l-2.171-5.532h-4.194v5.532h-2.4V320.3h6.832a5.446,5.446,0,0,1,2.712.543,2.651,2.651,0,0,1,1.236,1.51,8.437,8.437,0,0,1,.308,2.5,7.441,7.441,0,0,1-.436,2.628,2.651,2.651,0,0,1-1.736,1.607l2.4,5.853Zm-1.031-7.906a1.186,1.186,0,0,0,.777-.713,4.778,4.778,0,0,0,.169-1.469,5.069,5.069,0,0,0-.159-1.489,1.13,1.13,0,0,0-.733-.682,5.919,5.919,0,0,0-1.874-.213h-3.512v4.789h3.427A5.885,5.885,0,0,0,483.669,327.034Z" transform="translate(-435.946 -289.958)" fill="#06005d"/>
        <path id="Path_8" data-name="Path 8" d="M531.278,334.933V322.525H526.83V320.29h11.3v2.235h-4.448v12.408Z" transform="translate(-473.798 -289.95)" fill="#06005d"/>
        <path id="Path_9" data-name="Path 9" d="M320.45,436.738V434.61h5.407v2.128Z" transform="translate(-320.324 -374.964)" fill="#06005d"/>
        <path id="Path_10" data-name="Path 10" d="M364.478,405.3v8.15a16.9,16.9,0,0,1-.385,4.255,2.785,2.785,0,0,1-1.553,1.874,13.456,13.456,0,0,1-7.5,0,2.8,2.8,0,0,1-1.574-1.884,16.587,16.587,0,0,1-.395-4.245V405.3h2.4v8.9a11.473,11.473,0,0,0,.182,2.5,1.349,1.349,0,0,0,.841.979,6.862,6.862,0,0,0,2.3.267,6.7,6.7,0,0,0,2.276-.267,1.331,1.331,0,0,0,.831-.979,12.458,12.458,0,0,0,.169-2.5v-8.9Z" transform="translate(-344.582 -353.168)" fill="#06005d"/>
        <path id="Path_11" data-name="Path 11" d="M412.26,405.3h6.576a5.277,5.277,0,0,1,2.712.574,2.847,2.847,0,0,1,1.277,1.584,8.559,8.559,0,0,1,.331,2.607,8.4,8.4,0,0,1-.331,2.553,2.919,2.919,0,0,1-1.287,1.618,5.273,5.273,0,0,1-2.766.595h-4.107v5.107h-2.4Zm5.6,7.386a6.126,6.126,0,0,0,1.959-.223,1.212,1.212,0,0,0,.777-.746,5.454,5.454,0,0,0,.182-1.648,5.7,5.7,0,0,0-.169-1.638,1.178,1.178,0,0,0-.756-.733,5.922,5.922,0,0,0-1.925-.223H414.67v5.214h3.189Z" transform="translate(-388.598 -353.168)" fill="#06005d"/>
      </g>
      <path id="Path_12" data-name="Path 12" d="M481.445,397.927l.864-9.047-9.062.672,2.6,2.651L463,404.771l3.007,3.071,12.841-12.569Z" transform="translate(-106.371 -139.017)" fill="#06005d"/>
    </g>
  </g>
</svg>
