<svg xmlns="http://www.w3.org/2000/svg" width="14.667" height="16" viewBox="0 0 14.667 16"><g transform="translate(-317.957 -34.724)"><path d="M137.414,450a2.5,2.5,0,0,0,2.449-2h-4.9a2.5,2.5,0,0,0,2.449,2Zm0,0" transform="translate(187.21 -399.276)" fill="#fff"/><path d="M11.34,49.333h-.008a4.672,4.672,0,0,1-4.667-4.667,4.625,4.625,0,0,1,.446-1.977c-.147-.014-.3-.023-.446-.023A4.666,4.666,0,0,0,2,47.334v1.859A4.47,4.47,0,0,1,.407,52.615a1.166,1.166,0,0,0-.367,1.2,1.223,1.223,0,0,0,1.2.855h10.85a1.222,1.222,0,0,0,1.219-.925,1.169,1.169,0,0,0-.4-1.141,4.436,4.436,0,0,1-1.569-3.268Zm0,0" transform="translate(317.958 -6.61)" fill="#fff"/><path d="M262.678,3.333A3.333,3.333,0,1,1,259.345,0,3.333,3.333,0,0,1,262.678,3.333Zm0,0" transform="translate(69.945 34.724)" fill="red"/></g></svg>