<svg xmlns="http://www.w3.org/2000/svg" width="54.398" height="38.031" viewBox="0 0 54.398 38.031"><g transform="translate(-434.438 -793)"><g transform="translate(434.438 793)"><g transform="translate(0 0)"><path d="M54.323,96.413c-.195-1.408-1.646-2.535-4.365-3.358a30.92,30.92,0,0,0-8.016-1.127V80.37a1.012,1.012,0,0,0-.227-.65c-.357-1.257-1.809-2.275-4.322-3.033a32.25,32.25,0,0,0-8.969-1.137,31.306,31.306,0,0,0-8.871,1.137c-1.961.607-4.311,1.733-4.311,3.672a1.994,1.994,0,0,0,.032.357l.119,4.939a12.961,12.961,0,1,0,5.752,22.791,32.215,32.215,0,0,0,6.943.758c.552,3,7.052,4.376,13.118,4.376a31.055,31.055,0,0,0,8.882-1.159c1.971-.607,4.311-1.744,4.311-3.683v-11.9A1.122,1.122,0,0,0,54.323,96.413ZM20.2,78.756a29.26,29.26,0,0,1,8.232-1.051,30.3,30.3,0,0,1,8.341,1.051c2.351.715,2.86,1.451,2.86,1.6s-.509.9-2.87,1.6a30.577,30.577,0,0,1-8.33,1.051,29.741,29.741,0,0,1-7.983-.975c-2.329-.672-2.979-1.419-3.033-1.657,0-.022,0-.033-.011-.033C17.418,80.2,17.916,79.46,20.2,78.756Zm19.573,4.311V85.84a.877.877,0,0,0-.141.52c0,.141-.509.888-2.87,1.6a30.661,30.661,0,0,1-8.341,1.051,30.99,30.99,0,0,1-7.377-.812c-.032-.011-.054-.011-.087-.022a12.79,12.79,0,0,0-3.39-1.917l-.076-3.055a12,12,0,0,0,2.34.9,32.016,32.016,0,0,0,8.59,1.051,32.113,32.113,0,0,0,8.958-1.137A11.741,11.741,0,0,0,39.775,83.067Zm-19.541,23.3a10.8,10.8,0,1,1-7.268-18.783,11.105,11.105,0,0,1,3.206.477A10.9,10.9,0,0,1,23.56,96.2a11.328,11.328,0,0,1,.217,2.177A10.771,10.771,0,0,1,20.234,106.367Zm2.751.238a13.079,13.079,0,0,0,2.08-3.564c.921.076,1.9.13,2.892.141v.195l.054,3.672A34.111,34.111,0,0,1,22.986,106.605Zm2.881-9.511c.639.043,1.3.065,1.971.076,0,.022.011.054.011.076l.065,3.759q-1.154-.016-2.242-.1a13.315,13.315,0,0,0,.249-2.535A10.179,10.179,0,0,0,25.867,97.095Zm2.665-2.08h-.1c-1.04,0-2.047-.043-2.979-.108a12.842,12.842,0,0,0-1.939-4.03,39.013,39.013,0,0,0,4.907.314,32.25,32.25,0,0,0,8.969-1.137,13.924,13.924,0,0,0,2.383-.975v2.87C35.118,92.08,30.308,93.055,28.532,95.015Zm1.451,1.668c.108-.3.9-1.007,3.12-1.636a29.74,29.74,0,0,1,7.756-.921H41a30.357,30.357,0,0,1,8.341,1.029c2.286.693,2.827,1.387,2.86,1.571v.011c-.011.162-.552.91-2.957,1.625A30.116,30.116,0,0,1,41,99.38a30.583,30.583,0,0,1-7.864-.932c-2.069-.585-2.9-1.246-3.109-1.581A.917.917,0,0,0,29.983,96.683Zm22.249,12.056c0,.152-.487.9-2.784,1.614a28.974,28.974,0,0,1-8.243,1.062,29.476,29.476,0,0,1-8.222-1.029c-2.3-.7-2.762-1.43-2.762-1.592v-.022l-.054-3.13c2.578,1.311,6.878,1.906,10.821,1.906a31.952,31.952,0,0,0,8.936-1.137,12.624,12.624,0,0,0,2.307-.953v3.282Zm-.1-6c0,.152-.5.888-2.838,1.6a29.914,29.914,0,0,1-8.308,1.04c-5.947,0-9.976-1.332-10.865-2.383l-.022-.932-.043-2.481a12.618,12.618,0,0,0,2.47.942,32.642,32.642,0,0,0,8.449,1.018,32.422,32.422,0,0,0,8.85-1.1,12.4,12.4,0,0,0,2.394-.953v2.784h.011C52.232,102.413,52.135,102.576,52.135,102.738Z" transform="translate(0 -75.55)" fill="#00b2e7"/></g></g><text transform="translate(441 822)" fill="#00b2e7" font-size="17" font-family="Montserrat-Bold, Montserrat" font-weight="700" letter-spacing="0.04em"><tspan x="0" y="0">₽</tspan></text></g></svg>