<svg xmlns="http://www.w3.org/2000/svg" xmlns:xlink="http://www.w3.org/1999/xlink" width="1159.923" height="1082.667" viewBox="0 0 1159.923 1082.667">
  <defs>
    <linearGradient id="linear-gradient" x1="-0.141" y1="0.135" x2="0.5" y2="1" gradientUnits="objectBoundingBox">
      <stop offset="0" stop-color="#00ffd4"/>
      <stop offset="1" stop-color="#004cff"/>
    </linearGradient>
    <linearGradient id="linear-gradient-2" x1="0.29" x2="1" y2="1" gradientUnits="objectBoundingBox">
      <stop offset="0" stop-color="#0b00b2"/>
      <stop offset="1" stop-color="#00005b"/>
    </linearGradient>
  </defs>
  <g id="Group_66" data-name="Group 66" transform="translate(-760.076 2.667)">
    <path id="Path_14" data-name="Path 14" d="M1050.092,1079.053S918,1056,975.641,968s-100-26.667-161.333-170.667,10.667-194.667,114.667-332-73.333-64-74.667-202.667,148-264,148-264L1922,0V1080Z" transform="translate(-31.641)" fill="url(#linear-gradient)"/>
    <path id="Path_13" data-name="Path 13" d="M1830.95,0l-888-2.667s-260,254.667-90.667,344S737.314,570,733.617,712,962.127,854,928.852,950s-.42,129.065-.42,129.065l902.518.935Z" transform="translate(89.049)" fill="url(#linear-gradient-2)"/>
  </g>
</svg>
