<svg xmlns="http://www.w3.org/2000/svg" width="22.368" height="24.401" viewBox="0 0 22.368 24.401">
  <g id="notifications" transform="translate(-611.289 -66.759)">
    <path id="Path_24" data-name="Path 24" d="M138.7,451.05a3.819,3.819,0,0,0,3.735-3.05h-7.471a3.819,3.819,0,0,0,3.735,3.05Zm0,0" transform="translate(482.756 -359.891)" fill="#06005d"/>
    <g id="notifications-2" data-name="notifications">
      <path id="Path_25" data-name="Path 25" d="M17.3,52.834h-.012a7.125,7.125,0,0,1-7.117-7.117,7.054,7.054,0,0,1,.68-3.016c-.224-.021-.451-.034-.68-.034A7.117,7.117,0,0,0,3.05,49.784v2.835A6.817,6.817,0,0,1,.622,57.838a1.779,1.779,0,0,0-.559,1.826,1.865,1.865,0,0,0,1.828,1.3H18.437a1.864,1.864,0,0,0,1.858-1.41,1.782,1.782,0,0,0-.607-1.741A6.765,6.765,0,0,1,17.3,52.834Zm0,0" transform="translate(611.29 26.125)" fill="#06005d"/>
      <path id="Path_26" data-name="Path 26" d="M266.179,5.084A5.083,5.083,0,1,1,261.1,0,5.083,5.083,0,0,1,266.179,5.084Zm0,0" transform="translate(367.478 66.759)" fill="#00b2e7"/>
    </g>
  </g>
</svg>
