<svg xmlns="http://www.w3.org/2000/svg" width="90.192" height="82.666" viewBox="0 0 90.192 82.666"><path d="M-3656.328-12449.334a11.241,11.241,0,0,1-11.228-11.228,11.176,11.176,0,0,1,.67-3.825h-20.273a11.178,11.178,0,0,1,.67,3.825,11.241,11.241,0,0,1-11.228,11.228,11.242,11.242,0,0,1-11.231-11.228,11.118,11.118,0,0,1,2.387-6.913,14.186,14.186,0,0,1-5.325-9.562c0-.033-.006-.063-.009-.095l-.148-1.65a3.093,3.093,0,0,1-.05-.419c0-.053,0-.107,0-.16l-4.06-45.229h-4.139a3.709,3.709,0,0,1-3.705-3.705,3.709,3.709,0,0,1,3.705-3.705h7.526a3.684,3.684,0,0,1,3.689,3.375l1.047,11.674h70.523a3.727,3.727,0,0,1,2.919,1.429,3.72,3.72,0,0,1,.673,3.176l-7.526,30.1a3.7,3.7,0,0,1-3.375,2.8l-59.2,3.479a6.868,6.868,0,0,0,6.325,4.171h41.365a11.244,11.244,0,0,1,11.231,11.231A11.242,11.242,0,0,1-3656.328-12449.334Zm-18.53-39.583a1.267,1.267,0,0,1,.5.1l6.825,2.833a1.3,1.3,0,0,0,.5.1,1.3,1.3,0,0,0,.949-.418,1.275,1.275,0,0,0,.337-.975l-.572-7.423a1.3,1.3,0,0,1,.3-.937l4.806-5.674a1.278,1.278,0,0,0,.244-1.229,1.291,1.291,0,0,0-.927-.861l-7.19-1.742a1.291,1.291,0,0,1-.8-.586l-3.865-6.331a1.282,1.282,0,0,0-1.1-.617,1.282,1.282,0,0,0-1.1.617l-3.865,6.331a1.291,1.291,0,0,1-.8.586l-7.19,1.742a1.291,1.291,0,0,0-.927.861,1.279,1.279,0,0,0,.244,1.229l4.806,5.674a1.3,1.3,0,0,1,.3.938l-.573,7.423a1.27,1.27,0,0,0,.336.974,1.3,1.3,0,0,0,.949.419,1.287,1.287,0,0,0,.5-.1l6.825-2.833A1.267,1.267,0,0,1-3674.857-12488.917Z" transform="translate(3724.001 12532)" fill="#fff"/></svg>