<svg xmlns="http://www.w3.org/2000/svg" width="16.615" height="12.461" viewBox="0 0 16.615 12.461"><path d="M7.036,65.011c2.28,1.931,6.282,5.329,7.458,6.388a.695.695,0,0,0,1.005,0c1.177-1.06,5.178-4.458,7.459-6.39a.346.346,0,0,0,.049-.478A1.375,1.375,0,0,0,21.92,64H8.074a1.375,1.375,0,0,0-1.086.533A.346.346,0,0,0,7.036,65.011Z" transform="translate(-6.689 -64)" fill="#fff"/><path d="M343.778,126.444a.345.345,0,0,0-.369.05c-1.493,1.266-3.461,2.939-4.945,4.215a.346.346,0,0,0,.009.532c1.379,1.1,3.457,2.624,4.957,3.7a.346.346,0,0,0,.548-.281v-7.906A.346.346,0,0,0,343.778,126.444Z" transform="translate(-327.364 -124.386)" fill="#fff"/><path d="M.548,134.953c1.5-1.08,3.579-2.6,4.958-3.7a.346.346,0,0,0,.009-.532C4.031,129.441,2.063,127.769.57,126.5a.346.346,0,0,0-.57.264v7.906a.346.346,0,0,0,.548.281Z" transform="translate(0 -124.395)" fill="#fff"/><path d="M24.535,288.956c-1.449-1.037-4.119-2.97-5.712-4.263a.347.347,0,0,0-.446.008c-.313.273-.574.5-.76.67a1.4,1.4,0,0,1-1.932,0c-.185-.167-.447-.4-.759-.669a.345.345,0,0,0-.445-.008c-1.588,1.289-4.261,3.224-5.712,4.263a.346.346,0,0,0-.052.517,1.387,1.387,0,0,0,1.012.444H23.574a1.389,1.389,0,0,0,1.012-.444.346.346,0,0,0-.052-.517Z" transform="translate(-8.344 -277.456)" fill="#fff"/></svg>