<svg xmlns="http://www.w3.org/2000/svg" width="16.402" height="15.718" viewBox="0 0 16.402 15.718"><path d="M3.672,16.211a.873.873,0,0,1-.849-1.066L3.877,10.5.3,7.358A.872.872,0,0,1,.793,5.833L5.528,5.4,7.4,1.022a.872.872,0,0,1,1.6,0L10.875,5.4l4.734.43a.873.873,0,0,1,.5,1.525L12.526,10.5l1.055,4.648a.871.871,0,0,1-1.3.942L8.2,13.646,4.119,16.087a.874.874,0,0,1-.447.124ZM8.2,12.595a.874.874,0,0,1,.447.124l3.853,2.3-1-4.387a.872.872,0,0,1,.276-.849l3.379-2.963-4.47-.406a.871.871,0,0,1-.724-.528L8.2,1.755,6.435,5.889a.868.868,0,0,1-.722.526l-4.471.406L4.62,9.785a.87.87,0,0,1,.276.85l-1,4.387,3.853-2.3a.874.874,0,0,1,.447-.124ZM5.492,5.488h0Zm5.418,0h0Zm0,0" transform="translate(-0.001 -0.492)" fill="#00b2e7"/></svg>