<svg id="login-logo" xmlns="http://www.w3.org/2000/svg" width="443.776" height="461.797" viewBox="0 0 443.776 461.797">
  <g id="Group_4" data-name="Group 4">
    <path id="Path_1" data-name="Path 1" d="M319.96,202.97H391q19.072,0,29.32,6.207a30.639,30.639,0,0,1,13.794,17.136q3.554,10.929,3.572,28.17,0,16.552-3.572,27.587a31.415,31.415,0,0,1-13.917,17.472q-10.345,6.446-29.886,6.437H345.938v55.174H319.96Zm60.461,79.772q14.722,0,21.15-2.4c4.279-1.609,7.091-4.3,8.382-8.046q1.963-5.623,1.963-17.808t-1.839-17.7q-1.83-5.517-8.152-7.922t-20.814-2.423H345.938V282.76h34.484Z" transform="translate(-319.96 -201.149)" fill="#fff"/>
    <path id="Path_2" data-name="Path 2" d="M499.3,361.135l-23.449-59.772H430.567v59.772H404.59V202.97h73.795q19.31,0,29.32,5.853a28.559,28.559,0,0,1,13.333,16.322c2.228,6.967,3.325,15.986,3.325,27a80.586,80.586,0,0,1-4.7,28.4q-4.722,12.52-18.745,17.348l25.978,63.22H499.3Zm-11.158-85.4q6.552-2.414,8.4-7.693,1.83-5.279,1.839-15.862c0-7.357-.583-12.715-1.715-16.092-1.15-3.378-3.8-5.818-7.94-7.357s-10.893-2.3-20.23-2.3H430.568v51.725H467.58Q481.586,278.135,488.146,275.739Z" transform="translate(-254.932 -201.149)" fill="#fff"/>
    <path id="Path_3" data-name="Path 3" d="M510.8,357.222q-13.449-6.552-17.136-22.176t-3.678-52.185q0-36.553,3.678-52.185T510.8,208.5q13.449-6.552,45.165-6.561t45.288,6.561q13.554,6.552,17.242,22.3t3.678,52.061q0,36.314-3.678,52.079t-17.242,22.3q-13.555,6.552-45.288,6.561Q524.27,363.747,510.8,357.222Zm73.689-19.664q7.348-2.759,9.549-13.564,2.175-10.8,2.193-41.15,0-30.345-2.193-41.15c-1.468-7.2-4.633-11.724-9.549-13.564s-14.412-2.759-28.506-2.759-23.573.919-28.383,2.759q-7.242,2.759-9.426,13.564-2.2,10.8-2.193,41.15t2.193,41.15q2.175,10.8,9.426,13.564t28.383,2.758Q577.127,340.316,584.493,337.558Z" transform="translate(-189.311 -201.94)" fill="#fff"/>
    <path id="Path_4" data-name="Path 4" d="M341.48,422.4c-6.755-.389-12.68-.937-17.755-1.609V406.255q18.064,1.751,31.424,1.768a87.976,87.976,0,0,0,12.326-.654,17.521,17.521,0,0,0,6.9-2.281,6.824,6.824,0,0,0,3.077-4.191,30.792,30.792,0,0,0,.743-7.71,33.948,33.948,0,0,0-.654-7.922,5.718,5.718,0,0,0-2.794-3.678,19.229,19.229,0,0,0-7.127-1.609l-24.068-2.794q-9.257-1.035-14.165-4.474a17.431,17.431,0,0,1-6.755-9.178A48.578,48.578,0,0,1,320.79,349q0-12.467,4.474-18.869a20.994,20.994,0,0,1,12.255-8.435q7.772-2.042,20.266-2.051,8.515,0,17.472.813a128.676,128.676,0,0,1,14.536,1.98v14.094c-3.625-.584-8.117-1.043-13.51-1.4q-8.064-.5-15.261-.513a101.823,101.823,0,0,0-12.326.584,18.846,18.846,0,0,0-7.038,2.051,6.659,6.659,0,0,0-3.378,3.89,25.97,25.97,0,0,0-.725,7.127,28.013,28.013,0,0,0,.725,7.569,5.3,5.3,0,0,0,3.006,3.307,26.691,26.691,0,0,0,7.41,1.609l24.227,2.794a35.858,35.858,0,0,1,12.255,3.006,14.625,14.625,0,0,1,6.968,7.852q2.652,5.862,2.653,17.914,0,13.369-4.262,20.036a19.378,19.378,0,0,1-11.459,8.665Q371.887,423.011,360,423C354.389,422.984,348.236,422.79,341.48,422.4Z" transform="translate(-319.322 -111.501)" fill="#fff"/>
    <path id="Path_5" data-name="Path 5" d="M400.441,421.3V335.71H369.76V320.29h77.951v15.42H417.029V421.3Z" transform="translate(-281.694 -111.001)" fill="#fff"/>
    <path id="Path_6" data-name="Path 6" d="M490.336,421.3l-8.948-24.368H438.664L430,421.3H413.27l36.27-101.01h21.574l36.27,101.01ZM460.38,337.037h-.725L443.51,382.113h33.033Z" transform="translate(-248.262 -111.001)" fill="#fff"/>
    <path id="Path_7" data-name="Path 7" d="M536.426,421.293l-14.978-38.162H492.517v38.162H475.93V320.3h47.127q12.334,0,18.709,3.749a18.285,18.285,0,0,1,8.524,10.416q2.122,6.684,2.122,17.242a51.327,51.327,0,0,1-3.006,18.126q-3,8.011-11.972,11.088l16.587,40.372Zm-7.109-54.537c2.794-1.026,4.58-2.67,5.359-4.916s1.167-5.623,1.167-10.133c0-4.7-.371-8.117-1.1-10.274a7.794,7.794,0,0,0-5.058-4.7q-3.953-1.459-12.927-1.468H492.535v33.033h23.643C522.138,368.312,526.523,367.781,529.318,366.755Z" transform="translate(-200.115 -110.994)" fill="#fff"/>
    <path id="Path_8" data-name="Path 8" d="M557.512,421.3V335.71H526.83V320.29h77.95v15.42H574.1V421.3Z" transform="translate(-161.004 -111.001)" fill="#fff"/>
    <path id="Path_9" data-name="Path 9" d="M320.45,449.288V434.61h37.3v14.678Z" transform="translate(-319.584 -23.16)" fill="#fff"/>
    <path id="Path_10" data-name="Path 10" d="M431.763,405.3v56.217q0,20.106-2.653,29.355T418.394,503.8c-5.376,2.44-14.006,3.678-25.836,3.678q-17.772,0-25.907-3.678-8.143-3.661-10.858-13-2.705-9.311-2.723-29.284V405.3h16.587v61.363c0,8.223.407,13.97,1.255,17.242a9.3,9.3,0,0,0,5.8,6.755q4.536,1.83,15.862,1.839c7.445,0,12.679-.6,15.7-1.839a9.179,9.179,0,0,0,5.729-6.755c.778-3.271,1.167-9.036,1.167-17.242V405.3Z" transform="translate(-294.519 -45.681)" fill="#fff"/>
    <path id="Path_11" data-name="Path 11" d="M412.26,405.3h45.359q12.175,0,18.709,3.961a19.641,19.641,0,0,1,8.807,10.929q2.281,6.976,2.281,17.984a57.958,57.958,0,0,1-2.281,17.613,20.138,20.138,0,0,1-8.878,11.159q-6.6,4.111-19.081,4.1h-28.33v35.226H412.26Zm38.621,50.947q9.39,0,13.511-1.539a8.36,8.36,0,0,0,5.358-5.146q1.247-3.607,1.255-11.371t-1.167-11.3a8.126,8.126,0,0,0-5.217-5.057c-2.688-1.026-7.127-1.539-13.281-1.539H428.883v35.969h22Z" transform="translate(-249.038 -45.681)" fill="#fff"/>
  </g>
  <path id="Path_12" data-name="Path 12" d="M590.235,451.286l5.96-62.406-62.513,4.633L551.6,411.8,463,498.5l20.743,21.185,88.579-86.7Z" transform="translate(-210.05 -58.298)" fill="#fff"/>
</svg>
