<svg id="messages" xmlns="http://www.w3.org/2000/svg" width="26.424" height="19.818" viewBox="0 0 26.424 19.818">
  <g id="Group_11" data-name="Group 11">
    <g id="Group_10" data-name="Group 10">
      <path id="Path_27" data-name="Path 27" d="M7.108,65.608c3.627,3.071,9.99,8.475,11.86,10.159a1.1,1.1,0,0,0,1.6,0c1.872-1.686,8.235-7.09,11.862-10.162a.55.55,0,0,0,.077-.76A2.186,2.186,0,0,0,30.779,64H8.759a2.186,2.186,0,0,0-1.728.848A.55.55,0,0,0,7.108,65.608Z" transform="translate(-6.557 -64)" fill="#06005d"/>
      <path id="Path_28" data-name="Path 28" d="M346.986,126.463a.548.548,0,0,0-.587.08c-2.375,2.013-5.5,4.673-7.864,6.7a.55.55,0,0,0,.015.847c2.193,1.756,5.5,4.172,7.884,5.889a.551.551,0,0,0,.872-.447V126.962A.55.55,0,0,0,346.986,126.463Z" transform="translate(-320.882 -123.191)" fill="#06005d"/>
      <path id="Path_29" data-name="Path 29" d="M.872,139.99c2.387-1.717,5.692-4.133,7.884-5.889a.55.55,0,0,0,.015-.847c-2.36-2.03-5.49-4.69-7.865-6.7a.551.551,0,0,0-.906.42v12.573a.55.55,0,0,0,.872.447Z" transform="translate(0 -123.199)" fill="#06005d"/>
      <path id="Path_30" data-name="Path 30" d="M33.928,291.519c-2.3-1.649-6.55-4.723-9.084-6.78a.552.552,0,0,0-.709.012c-.5.434-.913.8-1.209,1.065a2.229,2.229,0,0,1-3.073,0c-.294-.265-.71-.632-1.207-1.064a.548.548,0,0,0-.708-.012c-2.526,2.05-6.776,5.128-9.084,6.78a.55.55,0,0,0-.083.823,2.206,2.206,0,0,0,1.61.706H32.4a2.209,2.209,0,0,0,1.61-.706.55.55,0,0,0-.083-.823Z" transform="translate(-8.178 -273.23)" fill="#06005d"/>
    </g>
  </g>
</svg>
