<svg xmlns="http://www.w3.org/2000/svg" width="95.928" height="27.154" viewBox="0 0 95.928 27.154">
  <g id="mir" transform="translate(-707 -844.343)">
    <g id="mir-2" data-name="mir" transform="translate(707 844.343)" opacity="0.68">
      <g id="g5" transform="translate(0 0)">
        <path id="path7" d="M25.85,118v.012a5.01,5.01,0,0,0-4.743,3.557c-.913,3.273-3.486,12.308-3.557,12.557h-.711s-2.632-9.237-3.557-12.569A5.019,5.019,0,0,0,8.537,118H0v27.154H8.537V129.028h.711l4.98,16.126h5.929l4.98-16.115h.711v16.115h8.537V118Z" transform="translate(0 -118)" fill="#0096ed"/>
      </g>
      <g id="g9" transform="translate(38.063 0)">
        <path id="path11" d="M339.972,118a4.783,4.783,0,0,0-3.676,2.846l-6.047,13.281h-.711V118H321v27.154h8.063a4.923,4.923,0,0,0,3.794-2.846l5.929-13.281h.711v16.126h8.537V118Z" transform="translate(-321 -118)" fill="#0096ed"/>
      </g>
      <g id="g13" transform="translate(68.893 12.332)">
        <path id="path15" d="M581,222v14.822h8.538v-8.656h9.249A9.237,9.237,0,0,0,607.5,222Z" transform="translate(-581 -222)" fill="#0096ed"/>
      </g>
      <g id="g17" transform="translate(67.695 0)">
        <path id="path24" d="M589.884,118H570.9a13.639,13.639,0,0,0,9.842,10.672h0a13.644,13.644,0,0,0,3.569.474h14.632a9.122,9.122,0,0,0,.19-1.9A9.246,9.246,0,0,0,589.884,118Z" transform="translate(-570.9 -118)" fill="#0096ed"/>
      </g>
    </g>
  </g>
</svg>
