<svg xmlns="http://www.w3.org/2000/svg" width="180.985" height="188.334" viewBox="0 0 180.985 188.334"><path d="M319.96,202.97H348.93q7.778,0,11.958,2.531a12.5,12.5,0,0,1,5.625,6.988,37.886,37.886,0,0,1,1.457,11.489,36.963,36.963,0,0,1-1.457,11.251,12.812,12.812,0,0,1-5.676,7.125q-4.219,2.629-12.188,2.625H330.554v22.5H319.96ZM344.618,235.5q6,0,8.625-.981a5.347,5.347,0,0,0,3.418-3.281,23.913,23.913,0,0,0,.8-7.262,25.045,25.045,0,0,0-.75-7.219,5.189,5.189,0,0,0-3.325-3.231q-2.574-.985-8.488-.988H330.554v22.97h14.063Z" transform="translate(-319.96 -202.227)" fill="#0090ee"/><path d="M443.217,267.474,433.654,243.1h-18.47v24.377H404.59v-64.5h30.1q7.875,0,11.957,2.387a11.648,11.648,0,0,1,5.438,6.657,37,37,0,0,1,1.356,11.013,32.866,32.866,0,0,1-1.919,11.583,11.7,11.7,0,0,1-7.645,7.075l10.594,25.783H443.217Zm-4.551-34.827a5.256,5.256,0,0,0,3.426-3.137,21,21,0,0,0,.75-6.469,22.42,22.42,0,0,0-.7-6.563,4.953,4.953,0,0,0-3.238-3q-2.531-.941-8.25-.938h-15.47v21.1h15.095A26.345,26.345,0,0,0,438.667,232.647Z" transform="translate(-343.555 -202.227)" fill="#0090ee"/><path d="M498.478,265.269a12.739,12.739,0,0,1-6.988-9.044q-1.5-6.372-1.5-21.283t1.5-21.283a12.725,12.725,0,0,1,6.988-9.044q5.485-2.672,18.42-2.676t18.47,2.676a12.739,12.739,0,0,1,7.032,9.094q1.5,6.426,1.5,21.232t-1.5,21.239a12.739,12.739,0,0,1-7.032,9.094q-5.528,2.672-18.47,2.676Q503.97,267.93,498.478,265.269Zm30.052-8.02q3-1.125,3.895-5.532t.894-16.782q0-12.376-.894-16.782c-.6-2.935-1.89-4.782-3.895-5.532s-5.878-1.125-11.626-1.125-9.614.375-11.575,1.125-3.253,2.6-3.844,5.532-.894,8.532-.894,16.782.3,13.847.894,16.782,1.875,4.782,3.844,5.532,5.827,1.125,11.575,1.125S526.526,258,528.531,257.249Z" transform="translate(-367.364 -201.94)" fill="#0090ee"/><path d="M329.228,361.549c-2.755-.159-5.171-.382-7.241-.656v-5.928q7.367.714,12.816.721a35.874,35.874,0,0,0,5.027-.267,7.144,7.144,0,0,0,2.813-.93,2.783,2.783,0,0,0,1.255-1.709,12.554,12.554,0,0,0,.3-3.144,13.839,13.839,0,0,0-.267-3.231,2.332,2.332,0,0,0-1.139-1.5,7.845,7.845,0,0,0-2.906-.656l-9.816-1.139a12.481,12.481,0,0,1-5.777-1.825,7.108,7.108,0,0,1-2.755-3.743,19.811,19.811,0,0,1-.75-5.928q0-5.084,1.825-7.7a8.562,8.562,0,0,1,5-3.44,33.462,33.462,0,0,1,8.265-.837q3.473,0,7.126.332a52.5,52.5,0,0,1,5.928.808v5.748c-1.478-.238-3.31-.425-5.51-.57s-4.27-.209-6.224-.209a41.522,41.522,0,0,0-5.027.238,7.685,7.685,0,0,0-2.87.837,2.716,2.716,0,0,0-1.377,1.586,10.591,10.591,0,0,0-.3,2.906,11.427,11.427,0,0,0,.3,3.087,2.161,2.161,0,0,0,1.226,1.349,10.885,10.885,0,0,0,3.022.656l9.88,1.139a14.62,14.62,0,0,1,5,1.226,5.964,5.964,0,0,1,2.842,3.2,18.664,18.664,0,0,1,1.082,7.306q0,5.452-1.738,8.171a7.9,7.9,0,0,1-4.673,3.534,30.174,30.174,0,0,1-7.782.808C334.493,361.787,331.983,361.708,329.228,361.549Z" transform="translate(-320.191 -234.755)" fill="#0090ee"/><path d="M382.273,361.485V326.579H369.76V320.29h31.791v6.289H389.038v34.906Z" transform="translate(-333.844 -234.936)" fill="#0090ee"/><path d="M444.7,361.485l-3.649-9.938H423.626l-3.534,9.938H413.27l14.792-41.195h8.8l14.792,41.195ZM432.483,327.12h-.3L425.6,345.5h13.472Z" transform="translate(-345.975 -234.936)" fill="#0090ee"/><path d="M500.6,361.488l-6.108-15.564h-11.8v15.564H475.93V320.3h19.22q5.03,0,7.63,1.529a7.458,7.458,0,0,1,3.476,4.248,23.739,23.739,0,0,1,.865,7.032A20.933,20.933,0,0,1,505.9,340.5a7.459,7.459,0,0,1-4.882,4.522l6.765,16.465Zm-2.9-22.242a3.338,3.338,0,0,0,2.185-2,13.444,13.444,0,0,0,.476-4.133,14.262,14.262,0,0,0-.447-4.19A3.179,3.179,0,0,0,497.855,327a16.649,16.649,0,0,0-5.272-.6H482.7v13.472h9.642A16.555,16.555,0,0,0,497.7,339.246Z" transform="translate(-363.445 -234.939)" fill="#0090ee"/><path d="M539.343,361.485V326.579H526.83V320.29h31.79v6.289H546.108v34.906Z" transform="translate(-377.635 -234.936)" fill="#0090ee"/><path d="M320.45,440.6V434.61h15.21V440.6Z" transform="translate(-320.097 -266.808)" fill="#0090ee"/><path d="M385.163,405.3v22.927q0,8.2-1.082,11.972a7.835,7.835,0,0,1-4.37,5.272c-2.192,1-5.712,1.5-10.537,1.5s-8.351-.5-10.566-1.5a7.881,7.881,0,0,1-4.428-5.3c-.736-2.531-1.111-6.52-1.111-11.943V405.3h6.765v25.026a32.278,32.278,0,0,0,.512,7.032,3.794,3.794,0,0,0,2.366,2.755,19.3,19.3,0,0,0,6.469.75,18.841,18.841,0,0,0,6.4-.75,3.744,3.744,0,0,0,2.337-2.755,35.047,35.047,0,0,0,.476-7.032V405.3Z" transform="translate(-329.191 -258.637)" fill="#0090ee"/><path d="M412.26,405.3h18.5q4.966,0,7.63,1.615a8.01,8.01,0,0,1,3.592,4.457,24.084,24.084,0,0,1,.93,7.335,23.639,23.639,0,0,1-.93,7.183,8.213,8.213,0,0,1-3.62,4.551q-2.694,1.677-7.782,1.673H419.025v14.366H412.26Zm15.751,20.778a17.235,17.235,0,0,0,5.51-.627,3.41,3.41,0,0,0,2.185-2.1,15.341,15.341,0,0,0,.512-4.637,16.028,16.028,0,0,0-.476-4.608,3.314,3.314,0,0,0-2.128-2.063,16.659,16.659,0,0,0-5.416-.627h-9.159v14.669h8.972Z" transform="translate(-345.693 -258.637)" fill="#0090ee"/><path d="M514.89,414.331l2.43-25.451-25.494,1.889,7.306,7.457L463,433.587l8.46,8.64,36.125-35.361Z" transform="translate(-359.839 -254.059)" fill="#0090ee"/></svg>