<svg xmlns="http://www.w3.org/2000/svg" width="13.306" height="15.968" viewBox="0 0 13.306 15.968"><g transform="translate(-42.675)"><g transform="translate(42.675)"><g transform="translate(0)"><path d="M55.934,13.468l-1.142-1.9a5.656,5.656,0,0,1-.806-2.91V6.986a4.663,4.663,0,0,0-3.327-4.461V1.331a1.331,1.331,0,1,0-2.661,0V2.525a4.663,4.663,0,0,0-3.327,4.461V8.654a5.66,5.66,0,0,1-.806,2.909l-1.142,1.9a.333.333,0,0,0,.285.5H55.649a.333.333,0,0,0,.285-.5Z" transform="translate(-42.675)" fill="#fff"/></g></g><g transform="translate(47.233 14.637)"><path d="M188.815,469.333a2.315,2.315,0,0,0,4.19,0Z" transform="translate(-188.815 -469.333)" fill="#fff"/></g></g></svg>