<svg xmlns="http://www.w3.org/2000/svg" xmlns:xlink="http://www.w3.org/1999/xlink" width="822.943" height="604.997" viewBox="0 0 822.943 604.997"><defs><linearGradient id="a" y1="0.076" x2="0.5" y2="1" gradientUnits="objectBoundingBox"><stop offset="0" stop-color="#00cddf"/><stop offset="1" stop-color="#0097ed"/></linearGradient></defs><g transform="translate(-1000.678 -305)"><path d="M-6475.1,6676.321c116.72,37.97,289.692,68.2,403.6,39.376s163.127-68.908,255.941-120.236,152.58-144.845,5.625-169.455-319.223,7.734-466.178-57.658-293.207-37.969-264.379,109.689S-6591.825,6638.352-6475.1,6676.321Z" transform="translate(7544.839 -5817.152)" fill="url(#a)"/><g transform="translate(190 -85.987)"><path d="M-15.816-7.869H338.117L405.467,30H28.052Z" transform="translate(981.751 823.003)" fill="#0471af" opacity="0.32"/><rect width="363" height="437" rx="23" transform="translate(985 396.987)" fill="#9eebff"/><rect width="363" height="437" rx="23" transform="translate(978 390.987)" fill="#d2f6ff"/><line x2="133.453" transform="translate(1012.368 605.352)" fill="none" stroke="#9eebff" stroke-linecap="round" stroke-width="12"/><g transform="translate(1015.32 421.706)"><path d="M0,0H105.109V74.055s-28.315,15.9-54.593,15.9S0,74.055,0,74.055Z" transform="translate(0 40.154)" fill="#9eebff"/><g transform="translate(10.68 0.281)" fill="none" stroke="#9eebff" stroke-width="10"><ellipse cx="41.5" cy="42.5" rx="41.5" ry="42.5" stroke="none"/><ellipse cx="41.5" cy="42.5" rx="36.5" ry="37.5" fill="none"/></g></g><line x2="102.747" transform="translate(1057.246 632.515)" fill="none" stroke="#9eebff" stroke-linecap="round" stroke-width="12"/><line x2="266.906" transform="translate(1033.626 659.678)" fill="none" stroke="#9eebff" stroke-linecap="round" stroke-width="12"/><line x2="266.906" transform="translate(1033.626 689.203)" fill="none" stroke="#9eebff" stroke-linecap="round" stroke-width="12"/><line x2="266.906" transform="translate(1033.626 716.366)" fill="none" stroke="#9eebff" stroke-linecap="round" stroke-width="12"/><line x2="181.874" transform="translate(1033.626 743.529)" fill="none" stroke="#9eebff" stroke-linecap="round" stroke-width="12"/><line x2="57.869" transform="translate(1033.626 794.312)" fill="none" stroke="#9eebff" stroke-linecap="round" stroke-width="12"/><line x2="57.869" transform="translate(1242.663 794.312)" fill="none" stroke="#9eebff" stroke-linecap="round" stroke-width="12"/><g transform="translate(863.161 590.792)"><g transform="translate(0)"><path d="M114.087,0,228.174,197H0S1.685,133.82,14.54,76.916,114.087,0,114.087,0Z" transform="translate(228.174 197.003) rotate(180)" fill="#276df8"/><path d="M114.087,197s49.019-17.827,80-67.767S228.174,0,228.174,0H0S1.685,63.183,14.54,120.087,114.087,197,114.087,197Z" transform="translate(0)" fill="#0097ed"/></g><g transform="translate(68.308 37.589)"><circle cx="46.5" cy="46.5" r="46.5" transform="translate(-0.469 -0.394)" fill="#fff"/><path d="M-6889.84,6468.662l19.07,18.176,31.045-34.149" transform="translate(6910.682 -6424.818)" fill="none" stroke="#0097ed" stroke-linecap="square" stroke-width="7"/></g></g><line x2="102.747" transform="translate(1109.21 605.352)" fill="none" stroke="#9eebff" stroke-linecap="round" stroke-width="12"/><line x2="133.453" transform="translate(1167.079 441.193)" fill="none" stroke="#9eebff" stroke-linecap="round" stroke-width="12"/><line x2="133.453" transform="translate(1167.079 495.519)" fill="none" stroke="#9eebff" stroke-linecap="round" stroke-width="12"/><line x2="62.593" transform="translate(1237.939 605.352)" fill="none" stroke="#9eebff" stroke-linecap="round" stroke-width="12"/><line x2="106.29" transform="translate(1194.242 632.515)" fill="none" stroke="#9eebff" stroke-linecap="round" stroke-width="12"/><line x2="133.453" transform="translate(1012.368 578.189)" fill="none" stroke="#9eebff" stroke-linecap="round" stroke-width="12"/><line x2="44.878" transform="translate(1167.079 468.356)" fill="none" stroke="#9eebff" stroke-linecap="round" stroke-width="12"/><line x2="44.878" transform="translate(1167.079 578.189)" fill="none" stroke="#9eebff" stroke-linecap="round" stroke-width="12"/><line x2="62.593" transform="translate(1237.939 468.356)" fill="none" stroke="#9eebff" stroke-linecap="round" stroke-width="12"/><line x2="62.593" transform="translate(1237.939 578.189)" fill="none" stroke="#9eebff" stroke-linecap="round" stroke-width="12"/></g></g></svg>