<svg xmlns="http://www.w3.org/2000/svg" width="21.007" height="16.001" viewBox="0 0 21.007 16.001"><g transform="translate(0 0)"><path d="M19.161,61H1.846A1.849,1.849,0,0,0,0,62.846V75.155A1.849,1.849,0,0,0,1.846,77H19.161a1.849,1.849,0,0,0,1.846-1.846V62.846A1.849,1.849,0,0,0,19.161,61Zm-.255,1.231-8.363,8.363L2.107,62.231ZM1.231,74.9V63.1l5.928,5.877Zm.87.87,5.932-5.932L10.111,71.9a.615.615,0,0,0,.868,0l2.027-2.027,5.9,5.9Zm17.675-.87-5.9-5.9,5.9-5.9Z" transform="translate(0 -61)" fill="#00b2e7"/></g></svg>