<svg id="user" xmlns="http://www.w3.org/2000/svg" width="17.52" height="21" viewBox="0 0 17.52 21">
  <path id="Path_55" data-name="Path 55" d="M92.09,10.116a4.894,4.894,0,0,0,3.576-1.482,4.894,4.894,0,0,0,1.482-3.576,4.895,4.895,0,0,0-1.482-3.576,5.057,5.057,0,0,0-7.152,0,4.894,4.894,0,0,0-1.482,3.576,4.894,4.894,0,0,0,1.482,3.576A4.9,4.9,0,0,0,92.09,10.116Zm0,0" transform="translate(-83.462 0)" fill="#fff"/>
  <path id="Path_56" data-name="Path 56" d="M17.478,253.32a12.5,12.5,0,0,0-.17-1.327,10.454,10.454,0,0,0-.326-1.334,6.587,6.587,0,0,0-.548-1.244,4.7,4.7,0,0,0-.827-1.078,3.646,3.646,0,0,0-1.188-.746,4.105,4.105,0,0,0-1.517-.274,1.539,1.539,0,0,0-.822.349c-.246.161-.535.347-.856.552a4.9,4.9,0,0,1-1.108.488,4.3,4.3,0,0,1-2.711,0,4.9,4.9,0,0,1-1.107-.488c-.319-.2-.607-.389-.857-.552a1.537,1.537,0,0,0-.822-.349,4.1,4.1,0,0,0-1.516.275,3.644,3.644,0,0,0-1.188.746,4.7,4.7,0,0,0-.827,1.078,6.6,6.6,0,0,0-.548,1.244,10.485,10.485,0,0,0-.326,1.334,12.451,12.451,0,0,0-.17,1.327c-.028.4-.042.819-.042,1.24A3.487,3.487,0,0,0,1.035,257.2a3.728,3.728,0,0,0,2.669.974H13.816a3.727,3.727,0,0,0,2.669-.974,3.485,3.485,0,0,0,1.036-2.638c0-.423-.014-.84-.042-1.24Zm0,0" transform="translate(0 -237.173)" fill="#fff"/>
</svg>
