<svg xmlns="http://www.w3.org/2000/svg" width="16" height="10.909" viewBox="0 0 16 10.909"><g transform="translate(0 -74.667)"><g transform="translate(0 74.667)"><g transform="translate(0 0)"><path d="M172.849,170.667a2.182,2.182,0,1,0,2.182,2.182A2.184,2.184,0,0,0,172.849,170.667Z" transform="translate(-164.849 -167.394)" fill="#00b2e7"/><path d="M8,74.667a8.6,8.6,0,0,0-8,5.455,8.594,8.594,0,0,0,16,0A8.6,8.6,0,0,0,8,74.667Zm0,9.091a3.636,3.636,0,1,1,3.636-3.636A3.638,3.638,0,0,1,8,83.758Z" transform="translate(0 -74.667)" fill="#00b2e7"/></g></g></g></svg>