<svg xmlns="http://www.w3.org/2000/svg" width="78.291" height="26.661" viewBox="0 0 78.291 26.661">
  <g id="visa" transform="translate(-595 -844.836)">
    <g id="Group_253" data-name="Group 253" transform="translate(595 844.836)" opacity="0.68">
      <path id="Path_139" data-name="Path 139" d="M6.346,10.957,9.268,31.886H16.44L29.814,5.971H22.277L16.6,17.99c-.8,1.707-1.5,3.249-2.1,4.664-.109-1.476-.231-2.909-.377-4.373l-1.148-12.3H1.506l11.922,9.432Z" transform="translate(-1.506 -5.588)" fill="#0096ed"/>
      <path id="Path_140" data-name="Path 140" d="M12.657,31.887,17.57,5.972H10.822L5.9,31.887Z" transform="translate(20.801 -5.583)" fill="#0096ed"/>
      <path id="Path_141" data-name="Path 141" d="M8.057,30.681c1.579,1.184,4.361,1.889,7.44,1.889,6.383,0,10.671-3.608,10.671-8.97,0-2.933-1.713-5.259-5.229-7.1-1.968-1.105-3.164-1.846-3.164-2.782,0-.875.917-1.816,3.091-1.816a8.97,8.97,0,0,1,4.045,1l.765.419,2.156-5.77-.565-.316a12.465,12.465,0,0,0-6.128-1.324c-6.11,0-10.379,3.571-10.379,8.685,0,3.7,2.915,5.764,5.478,7.148,2.405,1.251,2.879,1.962,2.879,2.769,0,1.555-1.676,2.107-3.116,2.107a10.7,10.7,0,0,1-5.369-1.452l-.759-.449L7.589,30.341Z" transform="translate(29.355 -5.908)" fill="#0096ed"/>
      <path id="Path_142" data-name="Path 142" d="M17.757,31.887l2.9-6.334H26.5l.51,6.334h7.009L30.979,5.972H23.138L10.53,31.887ZM24.8,15.877c.267-.583.541-1.251.82-1.937.049.613.091,1.19.128,1.688l.395,4.427h-3.28Z" transform="translate(44.275 -5.583)" fill="#0096ed"/>
    </g>
  </g>
</svg>
