<svg id="logo_prostar-up" data-name="logo prostar-up" xmlns="http://www.w3.org/2000/svg" width="33.242" height="34.592" viewBox="0 0 33.242 34.592">
  <g id="Group_4" data-name="Group 4">
    <path id="Path_1" data-name="Path 1" d="M319.96,202.97h5.321a4.269,4.269,0,0,1,2.2.465,2.3,2.3,0,0,1,1.033,1.284,6.958,6.958,0,0,1,.268,2.11,6.788,6.788,0,0,1-.268,2.066,2.353,2.353,0,0,1-1.042,1.309,4.262,4.262,0,0,1-2.239.482h-3.324v4.133H319.96Zm4.529,5.975a4.986,4.986,0,0,0,1.584-.18.982.982,0,0,0,.628-.6,4.392,4.392,0,0,0,.147-1.334,4.6,4.6,0,0,0-.138-1.326.953.953,0,0,0-.611-.593,4.782,4.782,0,0,0-1.559-.181h-2.635v4.219h2.583Z" transform="translate(-319.96 -202.834)" fill="#fff"/>
    <path id="Path_2" data-name="Path 2" d="M411.685,214.818l-1.756-4.477h-3.392v4.477H404.59V202.97h5.528a4.417,4.417,0,0,1,2.2.438,2.139,2.139,0,0,1,1,1.223,6.8,6.8,0,0,1,.249,2.023,6.036,6.036,0,0,1-.352,2.127,2.148,2.148,0,0,1-1.4,1.3l1.946,4.736h-2.066Zm-.836-6.4a.965.965,0,0,0,.629-.576,3.857,3.857,0,0,0,.138-1.188,4.118,4.118,0,0,0-.128-1.205.91.91,0,0,0-.595-.551,4.759,4.759,0,0,0-1.515-.172h-2.841V208.6h2.772A4.839,4.839,0,0,0,410.849,208.421Z" transform="translate(-393.38 -202.834)" fill="#fff"/>
    <path id="Path_3" data-name="Path 3" d="M491.549,213.572a2.34,2.34,0,0,1-1.284-1.661,27.869,27.869,0,0,1,0-7.818,2.337,2.337,0,0,1,1.284-1.661,11.922,11.922,0,0,1,6.776,0,2.34,2.34,0,0,1,1.292,1.67,27.747,27.747,0,0,1,0,7.8,2.34,2.34,0,0,1-1.292,1.67,11.907,11.907,0,0,1-6.776,0Zm5.52-1.473a1.237,1.237,0,0,0,.715-1.016,29.007,29.007,0,0,0,0-6.165,1.235,1.235,0,0,0-.715-1.016,7.172,7.172,0,0,0-2.135-.207,7.062,7.062,0,0,0-2.126.207,1.237,1.237,0,0,0-.706,1.016,29.007,29.007,0,0,0,0,6.165,1.237,1.237,0,0,0,.706,1.016,7.068,7.068,0,0,0,2.126.207A7.172,7.172,0,0,0,497.069,212.1Z" transform="translate(-467.467 -201.94)" fill="#fff"/>
    <path id="Path_4" data-name="Path 4" d="M322.34,327.338c-.506-.029-.95-.07-1.33-.121v-1.089q1.353.131,2.354.132a6.59,6.59,0,0,0,.923-.049,1.312,1.312,0,0,0,.517-.171.511.511,0,0,0,.23-.314,2.306,2.306,0,0,0,.056-.578,2.546,2.546,0,0,0-.049-.593.428.428,0,0,0-.209-.276,1.441,1.441,0,0,0-.534-.121l-1.8-.209a2.292,2.292,0,0,1-1.061-.335,1.306,1.306,0,0,1-.506-.687,3.64,3.64,0,0,1-.138-1.089,2.461,2.461,0,0,1,.335-1.413,1.572,1.572,0,0,1,.918-.632,6.146,6.146,0,0,1,1.518-.154q.638,0,1.309.061a9.643,9.643,0,0,1,1.089.148v1.056c-.272-.044-.608-.078-1.012-.1s-.784-.038-1.143-.038a7.618,7.618,0,0,0-.923.044,1.412,1.412,0,0,0-.527.154.5.5,0,0,0-.253.291,1.946,1.946,0,0,0-.054.534,2.1,2.1,0,0,0,.054.567.4.4,0,0,0,.225.248,2,2,0,0,0,.555.121l1.815.209a2.686,2.686,0,0,1,.918.225,1.1,1.1,0,0,1,.522.588,3.427,3.427,0,0,1,.2,1.342,2.823,2.823,0,0,1-.319,1.5,1.452,1.452,0,0,1-.858.649,5.544,5.544,0,0,1-1.429.148C323.307,327.381,322.846,327.367,322.34,327.338Z" transform="translate(-320.68 -304.049)" fill="#fff"/>
    <path id="Path_5" data-name="Path 5" d="M372.058,327.856v-6.411h-2.3V320.29H375.6v1.155h-2.3v6.411Z" transform="translate(-363.163 -304.613)" fill="#fff"/>
    <path id="Path_6" data-name="Path 6" d="M419.043,327.856l-.67-1.825h-3.2l-.649,1.825H413.27l2.717-7.566H417.6l2.717,7.566Zm-2.244-6.312h-.054l-1.209,3.377h2.474Z" transform="translate(-400.91 -304.613)" fill="#fff"/>
    <path id="Path_7" data-name="Path 7" d="M480.462,327.865l-1.122-2.859h-2.167v2.859H475.93V320.3h3.53a2.814,2.814,0,0,1,1.4.281,1.37,1.37,0,0,1,.638.78,4.361,4.361,0,0,1,.159,1.292,3.846,3.846,0,0,1-.225,1.358,1.37,1.37,0,0,1-.9.831l1.242,3.024Zm-.533-4.085a.613.613,0,0,0,.4-.368,2.469,2.469,0,0,0,.087-.759,2.619,2.619,0,0,0-.082-.77.584.584,0,0,0-.379-.352,3.059,3.059,0,0,0-.968-.11h-1.815V323.9h1.771A3.042,3.042,0,0,0,479.929,323.78Z" transform="translate(-455.27 -304.622)" fill="#fff"/>
    <path id="Path_8" data-name="Path 8" d="M529.128,327.856v-6.411h-2.3V320.29h5.839v1.155h-2.3v6.411Z" transform="translate(-499.427 -304.613)" fill="#fff"/>
    <path id="Path_9" data-name="Path 9" d="M320.45,435.709v-1.1h2.794v1.1Z" transform="translate(-320.385 -403.79)" fill="#fff"/>
    <path id="Path_10" data-name="Path 10" d="M358.965,405.3v4.211a8.734,8.734,0,0,1-.2,2.2,1.439,1.439,0,0,1-.8.968,6.953,6.953,0,0,1-3.876,0,1.448,1.448,0,0,1-.813-.974,8.572,8.572,0,0,1-.2-2.194V405.3h1.243v4.6a5.929,5.929,0,0,0,.094,1.292.7.7,0,0,0,.435.506,3.546,3.546,0,0,0,1.188.138,3.461,3.461,0,0,0,1.176-.138.688.688,0,0,0,.429-.506,6.439,6.439,0,0,0,.087-1.292v-4.6Z" transform="translate(-348.684 -378.362)" fill="#fff"/>
    <path id="Path_11" data-name="Path 11" d="M412.26,405.3h3.4a2.727,2.727,0,0,1,1.4.3,1.471,1.471,0,0,1,.66.819,4.423,4.423,0,0,1,.171,1.347,4.341,4.341,0,0,1-.171,1.319,1.508,1.508,0,0,1-.665.836,2.725,2.725,0,0,1-1.429.307H413.5v2.639H412.26Zm2.893,3.816a3.165,3.165,0,0,0,1.012-.115.626.626,0,0,0,.4-.385,2.819,2.819,0,0,0,.094-.852,2.944,2.944,0,0,0-.087-.846.609.609,0,0,0-.391-.379,3.06,3.06,0,0,0-.995-.115h-1.682v2.694h1.648Z" transform="translate(-400.034 -378.362)" fill="#fff"/>
  </g>
  <path id="Path_12" data-name="Path 12" d="M472.531,393.555l.446-4.675-4.683.347,1.342,1.37L463,397.091l1.554,1.587,6.635-6.495Z" transform="translate(-444.052 -364.117)" fill="#fff"/>
</svg>
