<svg xmlns="http://www.w3.org/2000/svg" width="59.03" height="41.27" viewBox="0 0 59.03 41.27"><g transform="translate(0 0)"><path d="M58.948,98.189c-.212-1.528-1.787-2.751-4.737-3.644a33.553,33.553,0,0,0-8.7-1.222V80.781a1.1,1.1,0,0,0-.247-.705c-.388-1.364-1.963-2.468-4.69-3.291a34.994,34.994,0,0,0-9.733-1.234,33.97,33.97,0,0,0-9.627,1.234c-2.128.658-4.678,1.881-4.678,3.985a2.164,2.164,0,0,0,.035.388l.129,5.36a14.065,14.065,0,1,0,6.242,24.731,34.958,34.958,0,0,0,7.535.823c.6,3.256,7.652,4.749,14.234,4.749a33.7,33.7,0,0,0,9.639-1.258c2.139-.658,4.678-1.892,4.678-4V98.647A1.218,1.218,0,0,0,58.948,98.189ZM21.922,79.029a31.75,31.75,0,0,1,8.933-1.14,32.878,32.878,0,0,1,9.051,1.14c2.551.776,3.1,1.575,3.1,1.74s-.552.976-3.115,1.74a33.181,33.181,0,0,1-9.039,1.14,32.272,32.272,0,0,1-8.663-1.058c-2.527-.729-3.232-1.54-3.291-1.8,0-.024,0-.035-.012-.035C18.9,80.593,19.442,79.793,21.922,79.029Zm21.24,4.678v3.009a.951.951,0,0,0-.153.564c0,.153-.552.964-3.115,1.74a33.271,33.271,0,0,1-9.051,1.14,33.629,33.629,0,0,1-8-.882c-.035-.012-.059-.012-.094-.024a13.879,13.879,0,0,0-3.679-2.081l-.082-3.315a13.025,13.025,0,0,0,2.539.976,34.741,34.741,0,0,0,9.321,1.14,34.847,34.847,0,0,0,9.721-1.234A12.741,12.741,0,0,0,43.162,83.708Zm-21.2,25.284A11.716,11.716,0,1,1,14.07,88.609a12.051,12.051,0,0,1,3.479.517,11.824,11.824,0,0,1,8.016,8.828,12.293,12.293,0,0,1,.235,2.363A11.688,11.688,0,0,1,21.957,108.991Zm2.986.259a14.193,14.193,0,0,0,2.257-3.867c1,.082,2.057.141,3.138.153v.212l.059,3.985A37.012,37.012,0,0,1,24.943,109.25Zm3.127-10.32c.694.047,1.411.071,2.139.082,0,.023.012.059.012.082l.071,4.079q-1.252-.018-2.433-.106a14.45,14.45,0,0,0,.27-2.751A11.046,11.046,0,0,0,28.069,98.93Zm2.892-2.257h-.106c-1.128,0-2.222-.047-3.232-.118a13.935,13.935,0,0,0-2.1-4.373,42.335,42.335,0,0,0,5.325.341,34.994,34.994,0,0,0,9.733-1.234,15.111,15.111,0,0,0,2.586-1.058v3.115C38.107,93.487,32.889,94.545,30.961,96.673Zm1.575,1.81c.118-.329.976-1.093,3.385-1.775a32.271,32.271,0,0,1,8.416-1h.153a32.942,32.942,0,0,1,9.051,1.117c2.48.752,3.068,1.5,3.1,1.7v.012c-.012.176-.6.987-3.209,1.763a32.68,32.68,0,0,1-8.945,1.1,33.186,33.186,0,0,1-8.534-1.011c-2.245-.635-3.15-1.352-3.373-1.716A1,1,0,0,0,32.536,98.483Zm24.143,13.083c0,.165-.529.976-3.021,1.751a31.441,31.441,0,0,1-8.945,1.152,31.985,31.985,0,0,1-8.922-1.117c-2.492-.764-3-1.552-3-1.728V111.6l-.059-3.4c2.8,1.422,7.464,2.069,11.743,2.069a34.672,34.672,0,0,0,9.7-1.234,13.7,13.7,0,0,0,2.5-1.034v3.562Zm-.106-6.512c0,.165-.541.964-3.08,1.74a32.461,32.461,0,0,1-9.016,1.128c-6.453,0-10.826-1.446-11.79-2.586l-.024-1.011-.047-2.692a13.693,13.693,0,0,0,2.68,1.023,35.42,35.42,0,0,0,9.168,1.1,35.182,35.182,0,0,0,9.6-1.2,13.453,13.453,0,0,0,2.6-1.034v3.021h.012C56.679,104.7,56.573,104.877,56.573,105.054Z" transform="translate(0 -75.55)" fill="#fff"/></g><text transform="translate(7.218 30.149)" fill="#fff" font-size="17" font-family="Montserrat-Bold, Montserrat" font-weight="700" letter-spacing="0.04em"><tspan x="0" y="0">₽</tspan></text></svg>