<svg xmlns="http://www.w3.org/2000/svg" width="42.342" height="29.603" viewBox="0 0 42.342 29.603"><g opacity="0.58"><g transform="translate(0 0)"><path d="M42.283,91.789c-.152-1.1-1.282-1.973-3.4-2.614a24.067,24.067,0,0,0-6.239-.877v-9a.788.788,0,0,0-.177-.506c-.278-.978-1.408-1.771-3.364-2.361a25.1,25.1,0,0,0-6.981-.885,24.367,24.367,0,0,0-6.905.885c-1.526.472-3.356,1.349-3.356,2.858a1.553,1.553,0,0,0,.025.278l.093,3.845a10.089,10.089,0,1,0,4.477,17.74,25.075,25.075,0,0,0,5.4.59c.43,2.336,5.489,3.406,10.21,3.406a24.172,24.172,0,0,0,6.914-.9c1.534-.472,3.356-1.357,3.356-2.867V92.118A.874.874,0,0,0,42.283,91.789ZM15.724,78.046a22.774,22.774,0,0,1,6.408-.818,23.583,23.583,0,0,1,6.492.818c1.83.556,2.226,1.13,2.226,1.248s-.4.7-2.234,1.248a23.8,23.8,0,0,1-6.484.818,23.149,23.149,0,0,1-6.214-.759c-1.813-.523-2.319-1.1-2.361-1.29,0-.017,0-.025-.008-.025C13.558,79.167,13.945,78.594,15.724,78.046ZM30.96,81.4V83.56a.682.682,0,0,0-.11.4c0,.11-.4.691-2.234,1.248a23.864,23.864,0,0,1-6.492.818,24.122,24.122,0,0,1-5.742-.632c-.025-.008-.042-.008-.067-.017a9.956,9.956,0,0,0-2.639-1.492l-.059-2.378a9.342,9.342,0,0,0,1.821.7,24.92,24.92,0,0,0,6.686.818,25,25,0,0,0,6.973-.885A9.14,9.14,0,0,0,30.96,81.4ZM15.75,99.537a8.4,8.4,0,1,1-5.657-14.62,8.644,8.644,0,0,1,2.5.371,8.481,8.481,0,0,1,5.75,6.332,8.818,8.818,0,0,1,.169,1.695A8.384,8.384,0,0,1,15.75,99.537Zm2.142.186a10.181,10.181,0,0,0,1.619-2.774c.717.059,1.475.1,2.251.11v.152l.042,2.858A26.548,26.548,0,0,1,17.891,99.723Zm2.243-7.4c.5.034,1.012.051,1.534.059,0,.017.008.042.008.059l.051,2.926q-.9-.013-1.745-.076a10.365,10.365,0,0,0,.194-1.973A7.923,7.923,0,0,0,20.134,92.32ZM22.208,90.7h-.076c-.809,0-1.594-.034-2.319-.084A10,10,0,0,0,18.3,87.48a30.366,30.366,0,0,0,3.819.245A25.1,25.1,0,0,0,29.1,86.84a10.839,10.839,0,0,0,1.855-.759v2.234C27.334,88.416,23.591,89.175,22.208,90.7Zm1.13,1.3c.084-.236.7-.784,2.428-1.273A23.147,23.147,0,0,1,31.8,90.01h.11a23.629,23.629,0,0,1,6.492.8c1.779.54,2.2,1.079,2.226,1.223v.008c-.008.126-.43.708-2.3,1.265a23.441,23.441,0,0,1-6.416.793,23.8,23.8,0,0,1-6.121-.725,4.453,4.453,0,0,1-2.42-1.231A.713.713,0,0,0,23.338,92Zm17.318,9.384c0,.118-.379.7-2.167,1.256a22.552,22.552,0,0,1-6.416.826,22.943,22.943,0,0,1-6.4-.8c-1.787-.548-2.15-1.113-2.15-1.239v-.017l-.042-2.437c2.007,1.02,5.354,1.484,8.423,1.484a24.87,24.87,0,0,0,6.956-.885,9.825,9.825,0,0,0,1.8-.742v2.555Zm-.076-4.671c0,.118-.388.691-2.209,1.248a23.284,23.284,0,0,1-6.467.809c-4.629,0-7.765-1.037-8.457-1.855l-.017-.725L23.4,94.259a9.822,9.822,0,0,0,1.922.734,25.407,25.407,0,0,0,6.576.793,25.236,25.236,0,0,0,6.888-.86,9.65,9.65,0,0,0,1.863-.742V96.35h.008C40.656,96.46,40.58,96.586,40.58,96.713Z" transform="translate(0 -75.55)" fill="#fff"/></g><text transform="translate(5.177 20.149)" fill="#fff" font-size="10" font-family="Montserrat-Bold, Montserrat" font-weight="700" letter-spacing="0.04em"><tspan x="0" y="0">₽</tspan></text></g></svg>